PathFileType	4	(X/Y/Z)	ROM_Ellenbogenflex_R 1.trc
DataRate	CameraRate	NumFrames	NumMarkers	Units	OrigDataRate	OrigDataStartFrame	OrigNumFrames
150	150	15	17	mm	150	768	2047
Frame#	Time	ST1			ST2			ST3			RACR1			RACR2			RACR3			RUA1			RUA2			RUA3			RUA4			RLA1			RLA2			RLA3			RLA4			RH1			RH2			RH3		
		X1	Y1	Z1	X2	Y2	Z2	X3	Y3	Z3	X4	Y4	Z4	X5	Y5	Z5	X6	Y6	Z6	X7	Y7	Z7	X8	Y8	Z8	X9	Y9	Z9	X10	Y10	Z10	X11	Y11	Z11	X12	Y12	Z12	X13	Y13	Z13	X14	Y14	Z14	X15	Y15	Z15	X16	Y16	Z16	X17	Y17	Z17
	
768	5.113333	318.323486	1168.700928	-15.541692	338.056580	1115.406616	18.094343	318.816498	1167.972168	40.312649	253.140350	1266.824951	244.583801	212.431305	1166.500366	268.712402	178.790100	1221.466187	174.884216	279.089752	1091.816406	245.250076	288.348267	1035.044312	258.012573	230.927307	1015.492798	261.499725	224.001404	1077.656860	247.724945	454.970734	801.196411	291.231812	548.550232	837.157227	282.671600	510.035309	804.417236	403.684906	435.497498	768.642029	342.285156	537.897461	746.441711	293.137207	575.064514	739.949768	327.379547	525.439636	735.761292	349.024780
769	5.120000	318.461792	1168.657715	-15.600905	338.183380	1115.360596	18.051943	318.982513	1167.943848	40.264084	253.595688	1266.825928	244.573151	212.852097	1166.493652	268.727509	179.104691	1221.521973	174.991928	279.370941	1091.725830	245.292435	288.815094	1034.930908	257.689728	231.346207	1015.528076	261.427246	224.403641	1077.658081	247.711731	453.708405	798.056519	291.658081	548.182251	831.946228	284.328552	507.809937	799.751526	404.658173	433.141968	765.781494	342.506866	535.430786	741.257996	294.135040	572.170166	733.576599	328.635956	522.344849	730.783508	349.853851
770	5.126667	318.603577	1168.618042	-15.656656	338.305023	1115.315063	18.019939	319.144684	1167.916992	40.219112	254.003326	1266.817261	244.583786	213.237167	1166.470825	268.738495	179.401108	1221.572632	175.091309	279.652039	1091.630371	245.306717	289.281982	1034.813599	257.350861	231.769669	1015.576721	261.404938	224.781738	1077.667358	247.717606	452.383850	795.053833	292.076630	547.669678	826.914001	285.917877	505.608337	795.330627	405.568634	430.773132	763.078552	342.721375	532.911621	736.177795	295.162415	569.201782	727.332397	329.808716	519.229126	726.018372	350.610535
771	5.133333	318.745209	1168.584106	-15.704855	338.420746	1115.270508	17.995211	319.302246	1167.887451	40.179031	254.367981	1266.799683	244.615021	213.590012	1166.436646	268.742889	179.678497	1221.621582	175.185364	279.946899	1091.534546	245.262207	289.743408	1034.689087	256.998108	232.197006	1015.632202	261.444855	225.131256	1077.686035	247.744339	450.996033	792.180359	292.476105	547.003784	822.039734	287.299469	503.481995	791.199585	406.364410	428.413269	760.541992	342.933441	530.363892	731.221985	296.200043	566.175964	721.230347	330.858185	516.107300	721.476562	351.294739
772	5.140000	318.883667	1168.557617	-15.741943	338.530396	1115.226562	17.975910	319.454193	1167.853271	40.145241	254.697540	1266.776733	244.662277	213.916138	1166.399292	268.740295	179.935028	1221.672852	175.275269	280.250092	1091.442383	245.160309	290.190033	1034.556885	256.639191	232.626038	1015.688416	261.553436	225.451706	1077.714600	247.788757	449.546051	789.427307	292.849304	546.184570	817.304199	288.372162	501.453430	787.372375	407.016022	426.078094	758.169983	343.147614	527.805237	726.432251	297.212616	563.093811	715.288025	331.782928	512.982239	717.157776	351.924744
773	5.146667	319.016937	1168.538452	-15.767237	338.634583	1115.183716	17.961325	319.599640	1167.815186	40.118607	255.000885	1266.753540	244.718048	214.220184	1166.368042	268.733124	180.169098	1221.730347	175.360046	280.548645	1091.357056	245.018585	290.612152	1034.418457	256.283447	233.050568	1015.740356	261.727722	225.745697	1077.753418	247.847458	448.037262	786.783875	293.193176	545.220154	812.686218	289.091248	499.528198	783.830811	407.517090	423.773895	755.949829	343.368591	525.225464	721.837769	298.152191	559.948425	709.532959	332.609314	509.850922	713.055359	352.526031
774	5.153333	319.143066	1168.524658	-15.782510	338.734070	1115.142334	17.951155	319.737610	1167.777344	40.098713	255.285873	1266.736206	244.772507	214.505020	1166.350586	268.725189	180.380722	1221.796143	175.437729	280.833405	1091.279419	244.854492	291.004059	1034.276123	255.937469	233.458847	1015.784729	261.955780	226.017456	1077.804688	247.918137	446.475830	784.234192	293.508331	544.122986	808.164368	289.475861	497.699799	780.530334	407.882385	421.497284	753.861694	343.599091	522.589722	717.439880	298.975586	556.734802	703.998840	333.364075	506.710205	709.158264	353.116089
775	5.160000	319.260284	1168.513672	-15.789571	338.829102	1115.104004	17.945532	319.866821	1167.744629	40.083916	255.558228	1266.730225	244.815308	214.772568	1166.351196	268.719879	180.571320	1221.869629	175.506683	281.102570	1091.208862	244.679886	291.364471	1034.133789	255.604355	233.835129	1015.820007	262.218811	226.271790	1077.870972	247.998611	444.872253	781.757019	293.796722	542.906982	803.722351	289.598999	495.944458	777.412659	408.143463	419.236389	751.882935	343.837830	519.864746	713.223755	299.668671	553.454041	698.716309	334.060120	503.559296	705.451721	353.698334
776	5.166667	319.367950	1168.503174	-15.789029	338.919128	1115.070312	17.944647	319.986420	1167.719238	40.072926	255.821045	1266.738525	244.838715	215.024567	1166.371338	268.719116	180.742645	1221.947510	175.566544	281.359100	1091.144287	244.502213	291.694336	1033.995483	255.285400	234.164810	1015.847046	262.492493	226.512924	1077.954346	248.086029	443.240417	779.331604	294.055420	541.586975	799.353882	289.564392	494.220520	774.422668	408.341156	416.974426	749.993652	344.078156	517.035706	709.177490	300.249969	550.114258	693.707153	334.701202	500.398865	701.919861	354.266357
777	5.173333	319.466919	1168.491211	-15.781188	339.003265	1115.041870	17.947947	320.096405	1167.699341	40.066448	256.075226	1266.761841	244.840073	215.261978	1166.410645	268.723755	180.897171	1222.025513	175.618759	281.605835	1091.085083	244.326523	291.995087	1033.863770	254.980667	234.442871	1015.871826	262.746826	226.742599	1078.053955	248.176819	441.591003	776.943604	294.270020	540.181702	795.065002	289.480225	492.476105	771.520874	408.516663	414.696228	748.180481	344.309631	514.105347	705.299438	300.753540	546.730408	688.983948	335.290527	497.229858	698.549072	354.811981
778	5.180000	319.559296	1168.475708	-15.767178	339.081726	1115.017578	17.954765	320.197601	1167.680176	40.066437	256.320801	1266.798706	244.822403	215.485046	1166.465210	268.733856	181.039062	1222.100098	175.666336	281.842285	1091.031616	244.156448	292.267578	1033.739136	254.689819	234.680450	1015.906860	262.949249	226.958939	1078.166260	248.267441	439.921051	774.585510	294.417267	538.710815	790.874084	289.436951	490.661804	768.689209	408.702881	412.393280	746.439697	344.523193	511.088562	701.593872	301.211426	543.321777	684.551392	335.832947	494.053345	695.331543	355.331207
779	5.186667	319.647308	1168.454834	-15.748731	339.156036	1114.995361	17.965366	320.291199	1167.658447	40.074253	256.557861	1266.845703	244.793686	215.694290	1166.527710	268.749542	181.174072	1222.169067	175.712753	282.064423	1090.983032	243.994431	292.512543	1033.619507	254.412735	234.898697	1015.967651	263.074860	227.157410	1078.286621	248.355087	438.207611	772.255737	294.477509	537.185913	786.807617	289.494507	488.744568	765.928162	408.916016	410.064240	744.775330	344.716461	508.008423	698.064209	301.644348	539.909485	680.406128	336.333069	490.872253	692.266235	355.824829
780	5.193333	319.732727	1168.428101	-15.727504	339.227814	1114.973022	17.980164	320.378265	1167.633667	40.090107	256.786438	1266.897339	244.764923	215.891037	1166.589478	268.770721	181.308182	1222.232178	175.761414	282.266449	1090.937866	243.841614	292.731995	1033.500854	254.148697	235.110413	1016.063416	263.120911	227.332565	1078.408569	248.437424	436.418640	769.964539	294.452423	535.606750	782.891785	289.675781	486.715942	763.251282	409.152802	407.712372	743.193787	344.892761	504.892151	694.709534	302.059052	536.516418	676.535522	336.794434	487.692352	689.356079	356.294312
781	5.200000	319.816528	1168.397217	-15.704620	339.298126	1114.949097	17.998779	320.459229	1167.608276	40.113163	257.006073	1266.947388	244.747406	216.076706	1166.643188	268.796173	181.445801	1222.291870	175.815109	282.443115	1090.893921	243.697845	292.930359	1033.378296	253.896912	235.307632	1016.191040	263.110016	227.478775	1078.525879	248.512238	434.541595	767.740051	294.377106	533.969055	779.146057	289.961945	484.591370	760.676575	409.396515	405.344788	741.700012	345.056000	501.763580	691.524902	302.452667	533.166687	672.920105	337.220459	484.521271	686.603882	356.736938
782	5.206667	319.899384	1168.366089	-15.679988	339.368073	1114.923340	18.020483	320.534637	1167.584351	40.141499	257.216125	1266.989990	244.749451	216.251862	1166.684082	268.823395	181.588287	1222.352417	175.875473	282.591125	1090.849609	243.562149	293.112885	1033.247559	253.659637	235.468475	1016.340393	263.076294	227.590942	1078.634155	248.577515	432.595764	765.618530	294.303802	532.271545	775.579529	290.299255	482.403107	758.220886	409.627869	402.971619	740.297852	345.206512	498.636139	688.501404	302.818420	529.879395	669.536926	337.612366	481.366028	684.011108	357.144653
